<svg width="512" height="512" viewBox="0 0 512 512" fill="none" xmlns="http://www.w3.org/2000/svg">
<rect width="512" height="512" rx="121" fill="white"/>
<g clip-path="url(#clip0_638_10845)">
<path d="M244.854 60.4067C243.716 60.2669 242.387 60.1271 240.882 60C242.236 60.1271 243.551 60.2669 244.854 60.4067Z" fill="black"/>
<path d="M70.9282 427.291C70.4222 427.341 70.5866 427.901 70.6246 428.485C71.1559 428.117 71.6999 427.735 72.2439 427.354C71.877 427.418 71.4596 427.418 70.9282 427.291Z" fill="black"/>
<path d="M74.0404 426.121C74.0783 425.994 74.1163 425.88 74.1416 425.766C74.0151 425.956 73.8886 426.147 73.7494 426.325C73.8506 426.261 73.9518 426.185 74.0404 426.121Z" fill="black"/>
<path d="M74.7362 424.863C75.2422 424.698 75.685 424.342 76.0392 423.694C75.4826 423.961 75.0778 424.393 74.7362 424.863Z" fill="black"/>
<path d="M73.5343 424.939C73.9265 425.092 74.2428 425.321 74.1416 425.753C74.1416 425.753 74.1416 425.753 74.1416 425.766C74.3313 425.461 74.5211 425.156 74.7488 424.863C74.3693 424.978 73.9644 425.003 73.547 424.939H73.5343Z" fill="black"/>
<path d="M73.5343 424.94C73.3066 424.851 73.0662 424.8 72.8512 424.749C73.0789 424.825 73.3066 424.901 73.5343 424.94Z" fill="black"/>
<path d="M72.8526 424.749C72.7256 424.711 72.6113 424.698 72.4843 424.647C72.5732 424.685 72.7002 424.711 72.8526 424.749Z" fill="black"/>
<path d="M72.9018 414.175C73.0789 413.324 75.5964 414.747 75.7735 413.896C76.5706 412.345 77.6079 407.249 75.8621 408.876C73.3193 411.43 71.9529 413.451 69.7264 415.815C68.2968 418.204 67.0443 420.695 65.4883 423.059C64.9696 423.618 64.2991 423.91 63.6539 424.215C64.6153 423.936 65.5768 423.643 66.6269 423.275C68.1197 422.944 67.4998 419.449 68.8281 417.67C68.9293 417.251 70.3842 419.195 70.574 418.356C71.3963 416.844 71.7505 415.128 72.8891 414.175H72.9018Z" fill="black"/>
<path d="M61.9586 433.022C59.5802 432.984 58.0621 433.874 56.7844 435.17C57.2778 435.627 57.7079 436.25 58.3151 436.212C58.4163 435.793 58.6314 434.928 58.6314 434.928C60.8959 435.399 61.7562 433.874 62.6038 432.349C62.1737 432.171 61.7436 431.993 61.3008 431.815C60.6682 432.488 60.9972 433.086 61.9586 433.009V433.022Z" fill="black"/>
<path d="M56 435.958L56.0633 435.983C56.291 435.704 56.5313 435.437 56.7717 435.183C56.7211 435.132 56.6705 435.094 56.6199 435.043C56.4048 435.36 56.2024 435.665 56 435.97V435.958Z" fill="black"/>
<path d="M177.184 306.648C176.994 306.712 176.805 306.788 176.59 306.89C176.805 306.813 176.982 306.724 177.184 306.648Z" fill="black"/>
<path d="M450.345 441.384C450.522 440.876 450.687 440.368 450.864 439.847C450.623 440.063 450.307 440.253 449.826 440.419C449.472 440.685 449.953 441.003 450.345 441.384Z" fill="black"/>
<path d="M451.458 438.169C451.408 438.067 451.357 437.966 451.307 437.877C451.332 438.067 451.357 438.258 451.357 438.436C451.395 438.347 451.42 438.245 451.458 438.169Z" fill="black"/>
<path d="M451.458 435.564C451.205 436.009 451.167 436.492 451.205 436.975C451.484 436.619 451.61 436.174 451.458 435.564Z" fill="black"/>
<path d="M451.306 437.864C451.306 437.864 451.306 437.864 451.306 437.877C451.269 437.572 451.218 437.279 451.193 436.974C450.978 437.241 450.674 437.445 450.32 437.597C450.712 437.521 451.104 437.521 451.294 437.864H451.306Z" fill="black"/>
<path d="M450.32 437.597C449.94 437.673 449.561 437.851 449.346 437.89C449.7 437.826 450.029 437.724 450.32 437.597Z" fill="black"/>
<path d="M444.045 439.605C444.968 438.703 442.274 436.644 442.16 434.903C441.957 434.585 444.31 435.208 443.918 434.573C443.741 433.886 443.463 433.238 443.235 432.603C442.982 431.967 442.818 431.37 442.919 430.798C442.476 430.175 445.272 429.896 444.842 429.26C444.399 427.875 441.768 424.241 441.565 426.083C441.388 428.841 441.793 430.773 441.654 433.289C442.097 435.462 442.742 437.661 443.058 439.948C443.02 440.558 442.704 441.041 442.413 441.537C442.957 440.94 443.501 440.317 444.057 439.605H444.045Z" fill="black"/>
<path d="M445.158 447.84C445.057 448.577 445.677 448.882 446.385 448.425C444.513 449.404 443.855 450.649 443.64 452.123C444.285 452.263 444.994 452.543 445.436 452.263C445.272 451.907 444.93 451.195 444.93 451.195C446.967 450.598 446.74 449.124 446.486 447.675C446.044 447.726 445.601 447.79 445.158 447.84Z" fill="black"/>
<path d="M443.501 453H443.564C443.577 452.695 443.602 452.403 443.64 452.11C443.577 452.098 443.501 452.085 443.438 452.072C443.463 452.39 443.475 452.695 443.501 453Z" fill="black"/>
<path d="M455.911 384.577C455.696 381.845 455.469 379.087 455.254 376.291C455.203 375.592 455.152 374.88 455.102 374.169C455.013 373.47 454.925 372.758 454.836 372.046C454.672 370.623 454.507 369.174 454.368 367.7C454.204 366.099 454.191 364.485 453.963 362.922C453.786 361.346 453.622 359.783 453.482 358.207C453.369 356.618 453.242 355.042 453.128 353.479C452.951 351.929 452.787 350.366 452.647 348.79C452.508 347.227 452.281 345.701 451.99 344.202C451.737 342.69 451.218 341.279 450.775 339.856C450.307 338.432 449.814 337.034 449.32 335.636C448.827 334.238 448.333 332.84 447.726 331.481C446.588 328.736 445.563 325.927 444.766 322.94C443.83 320.005 443.159 316.853 442.906 313.269C442.615 310.575 440.806 307.487 438.858 304.551C438.364 303.827 437.871 303.09 437.34 302.403C436.783 301.743 436.239 301.094 435.708 300.472C434.645 299.239 433.684 298.121 432.899 297.206C430.508 296.303 428.269 296.812 426.295 297.854C426.422 297.383 426.536 296.901 426.65 296.43C427.915 291.22 428.939 286.492 430.078 281.612C431.95 274.597 434.228 267.391 436.226 260.338C438.238 253.297 439.946 246.422 440.983 240.335C444.121 221.196 443.21 203.34 438.364 187.416C440.692 196.401 441.692 204.395 442.071 212.566C442.413 220.738 442.046 229.151 440.705 239.026C440.237 242.317 439.807 243.321 439.604 242.902C439.364 242.47 439.339 240.614 439.237 238.047C439.237 232.951 438.934 225.084 438.833 220.725C438.63 218.844 439.212 216.455 439.807 214.028C440.287 211.588 440.768 209.11 440.427 207.203C439.971 198.867 437.631 191.305 434.607 182.968C433.013 179.511 435.429 179.194 434.582 177.465C432.393 171.81 429.521 167.324 426.953 163.41C424.385 159.495 422.095 156.128 420.817 152.696C420.805 152.658 420.78 152.62 420.767 152.569C422.247 152.404 423.55 151.629 424.803 150.676C423.297 151.095 422.171 151.692 420.564 152.061C420.425 151.718 420.299 151.387 420.16 151.057C420.552 150.078 421.45 148.731 421.931 148.312C422.26 147.765 422.778 150.472 423.107 149.926C423.828 149.926 424.499 148.833 425.283 148.147C425.625 147.6 425.562 150.04 425.726 149.773C426.789 149.24 427.636 146.113 428.307 146.787C428.813 147.155 429.281 147.537 429.724 147.918C430.002 148.058 430.293 148.172 430.597 148.083C430.786 147.88 430.989 147.676 431.179 147.473C432.596 146.062 434.24 144.817 435.771 143.8C435.771 143.737 435.771 143.661 435.758 143.584C434.873 143.813 434.025 143.572 433.14 142.072C433.519 142.618 433.456 143.292 433.013 143.432C432.912 143.025 432.798 142.606 432.697 142.212C433.494 141.538 434.303 140.865 434.999 142.644C434.999 142.644 435.353 142.097 435.518 141.83C435.758 142.174 435.733 142.936 435.771 143.597C435.948 143.559 436.125 143.495 436.29 143.419C435.948 142.199 434.835 140.61 434.835 140.61C432.596 140.649 430.508 140.496 428.446 140.242C428.282 140.712 428.168 141.271 427.953 140.979C427.801 140.547 427.636 140.28 427.485 140.102L426.586 139.962C426.485 140.013 426.371 140.077 426.27 140.153C426.093 140.445 426.144 140.814 426.245 141.182C426.359 141.437 426.46 141.742 426.548 142.072C426.498 141.869 426.346 141.538 426.245 141.182C426.106 140.877 425.954 140.623 425.764 140.483C425.638 140.547 425.511 140.598 425.385 140.623C425.486 140.572 425.587 140.509 425.701 140.433C425.726 140.445 425.751 140.458 425.764 140.471C425.903 140.394 426.03 140.305 426.169 140.217C426.169 140.217 426.232 140.178 426.27 140.153C426.321 140.077 426.371 140.013 426.422 139.937L424.372 139.568C424.221 139.632 424.069 139.683 423.942 139.772C423.449 140.102 422.956 140.42 422.652 139.238C422.525 139.213 422.412 139.187 422.285 139.162C422.31 139.238 422.323 139.301 422.361 139.378C422.31 139.301 422.26 139.225 422.222 139.149C421.703 139.047 421.197 138.933 420.666 138.831C419.654 138.628 418.629 138.425 417.579 138.209C416.617 137.993 415.656 137.815 414.707 137.662C413.505 135.057 412.227 132.464 410.633 129.834C409.432 128.118 408.154 126.351 406.813 124.61C402.081 118.383 396.3 111.902 389.481 106.628C382.7 101.341 375.223 97.1599 367.86 93.754C367.886 93.8429 367.924 93.9573 367.949 94.0463C376.336 98.329 384.167 103.895 390.063 111.902C388.76 110.212 388.254 109.373 388.583 109.322C388.899 109.284 390.05 110.034 391.809 111.749C392.391 112.931 392.935 114.151 393.441 115.32C387.356 109.398 380.537 104.874 374.78 99.1551C374.78 99.1551 373.945 98.7993 372.908 98.3417C371.858 97.9097 370.618 97.4013 369.783 97.0836C367.658 95.4696 368.113 94.8977 367.936 94.0335C366.304 93.1821 364.609 92.3941 362.914 91.6189C364.407 93.0296 367.683 95.5204 370.466 97.7953C373.262 100.045 375.565 102.065 375.565 102.065C380.448 105.268 384.977 108.864 388.975 112.88C392.985 116.896 396.439 121.357 399.475 126.008C401.765 129.529 403.84 133.138 405.788 136.798C403.119 136.645 400.411 136.48 397.565 136.112C393.744 135.54 390.05 134.637 386.394 133.392C379.056 130.914 372.756 134.587 365.026 129.046C362.053 127.127 356.955 128.741 354.286 129.274C353.754 129.999 353.4 130.901 353.16 131.88C352.654 131.104 352.135 130.329 351.566 129.554C348.226 124.954 343.672 120.709 338.396 117.379C338.181 117.239 337.966 117.1 337.738 116.947C337.637 116.871 337.523 116.82 337.409 116.756C337.182 116.629 336.941 116.502 336.713 116.375C335.777 115.892 334.917 115.46 334.917 115.46C334.917 115.46 334.335 115.104 333.601 114.749C332.868 114.38 331.995 113.961 331.463 113.745C326.542 111.61 322 110.529 318.015 109.957C314.018 109.411 310.539 109.271 307.54 109.449C301.531 109.741 297.457 110.847 294.421 111.787C289.955 113.16 285.793 115.193 282.023 118.027C280.151 119.451 278.405 121.09 276.874 122.933C275.331 124.763 274.028 126.885 273.066 128.995C271.131 133.265 270.511 137.548 270.536 141.259C270.536 144.105 270.878 146.698 271.371 149.113C271.308 149.113 271.257 149.113 271.194 149.125C267.993 149.468 265.109 149.989 265.109 149.989C265.109 149.989 262.212 150.409 259.062 151.095C257.683 151.387 256.278 151.73 255.026 152.061C252.103 148.172 248.498 144.804 244.854 141.958C240.857 138.882 237.175 136.353 232.874 133.697C228.623 131.117 223.879 128.791 218.932 127.368C217.705 127.012 216.453 126.707 215.226 126.479C213.999 126.237 212.67 126.046 211.443 125.957C208.963 125.741 206.623 125.805 204.472 126.034C200.158 126.529 196.603 127.737 194.2 128.893C192.998 129.465 192.074 129.986 191.454 130.38C190.835 130.749 190.506 130.977 190.506 130.977C190.506 130.977 189.81 131.422 188.608 132.363C187.419 133.328 185.698 134.828 183.952 137.103C182.232 139.365 180.701 142.237 179.613 145.211C178.512 148.236 177.791 151.133 177.146 154.361C175.868 160.792 175.426 168.188 176.121 175.47C176.147 175.788 176.197 176.118 176.235 176.436C175.982 176.474 175.742 176.525 175.502 176.614C174.844 176.843 174.211 177.224 173.326 177.453C172.402 177.656 171.213 177.732 169.53 177.389C171.643 177.618 172.111 179.067 171.238 180.147C170.808 180.681 170.036 181.113 169.024 181.214C167.999 181.303 166.671 181.011 165.204 180.185C163.002 178.889 161.37 178.469 160.042 178.609C158.701 178.736 157.6 179.359 156.614 180.236C154.678 181.99 152.806 184.417 150.01 184.671C148.605 184.785 147.543 185.764 146.088 186.336C145.936 186.349 145.784 186.387 145.62 186.412C145.405 183.693 145.266 180.947 145.177 178.152C145.063 173.882 145.051 169.472 145.139 165.176C145.228 160.881 145.443 156.636 145.86 152.48C146.67 144.182 148.264 136.175 151.123 128.931C153.932 121.7 158.119 115.257 163.559 109.703C174.401 98.5705 189.772 91.3266 206.281 88.2511C212.607 87.0184 220.349 85.7603 228.826 85.2138C237.352 84.6673 246.955 84.6927 256.607 85.2773C275.963 86.4592 296.028 89.3695 310.121 91.0089C319.673 91.2249 325.783 90.4497 329.427 89.217C332.69 88.1241 333.968 86.7134 334.145 85.2773C336.207 86.1034 338.573 86.8786 341.331 87.6793C338.915 86.6117 336.498 85.8619 334.145 85.1375C334.145 85.0105 334.171 84.8961 334.171 84.769C334.019 81.541 328.996 78.3003 328.174 77.9191C324.252 75.9111 320.482 74.3098 316.649 72.9754C322.051 73.4584 328.301 73.7761 335.271 75.7205C337.093 76.0763 335.904 78.2368 339.471 78.923C343.596 79.9397 347.353 81.0962 351.11 82.151C354.792 83.3965 358.423 84.6038 362.028 86.3321C365.583 87.4124 369.454 92.4831 372.832 93.8556C374.768 94.8088 377.513 96.0796 380.309 97.5157C383.117 98.9391 385.977 100.54 388.254 101.837C390.531 103.133 392.214 104.15 392.707 104.188C393.2 104.251 392.517 103.311 389.86 101.112C385.837 97.8461 381.941 95.2663 378.209 93.055C374.464 90.8437 370.871 88.9755 367.316 87.298C363.749 85.6205 360.232 84.0954 356.563 82.6594C354.729 81.935 352.894 81.147 350.971 80.4481C349.048 79.7491 347.075 79.0247 345.025 78.2876C332.842 74.5513 320.786 72.2129 308.185 70.4846C303.871 69.3916 299.342 68.4893 294.32 67.6124C287.792 66.4686 280.467 65.3249 271.788 64.0286C264.059 62.8975 255.279 61.5504 244.816 60.4321C249.953 61.0675 251.471 61.7665 250.471 62.1731C249.232 62.745 244.222 62.9865 237.201 63.2915C230.205 63.6346 221.058 64.2065 211.797 65.4901C202.499 66.7228 193.023 68.6418 184.927 70.4083C181.954 70.9294 178.993 71.8571 175.957 72.8356C174.414 73.2804 172.946 73.9667 171.415 74.5767C169.91 75.2376 168.328 75.7967 166.848 76.6228C165.343 77.398 163.825 78.2114 162.294 79.0501C160.763 79.8762 159.321 80.9183 157.815 81.8841C157.069 82.3798 156.323 82.8881 155.576 83.3838C154.83 83.9048 154.134 84.5021 153.413 85.0613C151.983 86.2178 150.503 87.3488 149.112 88.607C143.507 93.6523 138.434 99.8032 134.221 106.742C130.021 113.732 126.972 121.535 125.062 129.338C123.088 137.166 122.165 145.046 121.735 152.722C121.317 160.423 121.431 167.87 121.671 175.229C121.912 182.307 122.405 189.589 123.481 196.973C121.33 197.977 120.267 200.875 118.888 202.819C117.686 203.81 115.751 203.34 114.612 203.848C112.854 204.662 111.677 206.123 110.652 207.75C112.095 206.619 113.018 205.488 114.688 204.344C115.839 203.67 115.106 207.585 114.587 208.563C114.473 209.211 112.828 206.975 112.715 207.636C111.968 207.966 111.74 209.275 111.222 210.253C111.108 210.902 110.146 208.665 110.083 208.983C109.21 209.999 109.678 213.227 108.717 212.935C108.046 212.846 107.414 212.732 106.781 212.605C106.427 212.617 106.098 212.655 105.82 212.884C105.706 213.151 105.605 213.431 105.491 213.71C104.668 215.68 103.606 217.65 102.568 219.327C102.606 219.391 102.644 219.454 102.682 219.518C103.454 218.87 104.415 218.641 105.959 219.531C105.339 219.238 105.086 218.603 105.478 218.26L106.351 219.188C105.87 220.192 105.402 221.183 103.884 219.976C103.884 219.976 103.796 220.636 103.745 220.954C103.353 220.776 103.024 220.077 102.682 219.518C102.53 219.645 102.391 219.785 102.252 219.95C103.163 220.852 104.985 221.704 104.985 221.704C107.123 220.522 109.261 219.645 111.411 218.933C111.374 218.425 111.247 217.879 111.576 218.044C111.918 218.362 112.183 218.527 112.411 218.616L113.36 218.323C113.436 218.222 113.512 218.12 113.6 218.006C113.651 217.663 113.448 217.345 113.195 217.065C112.968 216.887 112.74 216.659 112.525 216.404C112.664 216.57 112.955 216.786 113.195 217.065C113.461 217.281 113.714 217.434 113.954 217.472C114.056 217.358 114.157 217.243 114.271 217.167C114.195 217.256 114.106 217.37 114.03 217.472C114.005 217.472 113.98 217.472 113.942 217.472C113.84 217.612 113.752 217.752 113.651 217.891C113.651 217.891 113.6 217.968 113.575 217.993C113.562 218.082 113.537 218.171 113.524 218.26C114.245 218.031 114.979 217.84 115.713 217.65C115.839 217.523 115.966 217.408 116.054 217.281C116.409 216.76 116.775 216.239 117.56 217.192C117.686 217.154 117.826 217.129 117.952 217.103C117.901 217.053 117.851 217.002 117.788 216.938C117.876 216.976 117.952 217.04 118.015 217.091C118.572 216.951 119.129 216.824 119.685 216.684C120.786 216.43 121.887 216.163 123.012 215.896C124.531 215.578 125.985 215.197 127.415 214.778C128.098 216.951 128.845 219.111 129.68 221.221C132.615 228.668 136.764 235.632 141.521 242.101C146.265 248.608 151.604 254.708 157.018 260.884C163.774 268.967 170.492 276.885 177.69 284.713C182.245 289.669 186.989 294.524 191.923 299.252C188.697 298.934 187.027 299.773 185.395 301.133C183.51 302.708 181.549 304.945 177.134 306.686C179.651 305.784 179.904 307.461 178.576 309.507C177.146 311.719 173.895 314.349 169.707 314.54C163.496 314.693 159.915 318.175 156.727 322.369C153.59 326.6 150.807 331.493 146.505 334.467C144.367 335.954 142.799 338.191 140.585 340.3C127.516 349.578 120.002 362.718 107.401 373.597C104.226 376.634 102.923 380.93 100.987 384.336C99.2538 386.471 96.3188 387.551 94.6742 389.012C92.0807 391.313 90.4108 393.931 88.9559 396.637C91.0686 394.185 92.397 392.151 94.826 389.521C96.5086 387.83 95.6483 392.952 94.9145 394.515C94.7627 395.379 92.1946 394.032 92.0428 394.896C90.9421 395.875 90.6385 397.591 89.9047 399.154C89.7529 400.018 88.2221 398.112 88.1462 398.544C86.8685 400.361 87.6275 403.818 86.1474 404.199C85.1226 404.606 84.1612 404.923 83.2123 405.241C82.681 405.521 82.175 405.813 81.7701 406.283C81.6057 406.69 81.4412 407.097 81.2641 407.516C80.0116 410.439 78.2784 413.514 76.5832 416.272C76.6338 416.31 76.6971 416.361 76.7477 416.412C77.9748 415.078 79.455 414.15 81.8334 414.099C80.8719 414.201 80.5177 413.616 81.1376 412.917C81.5804 413.082 82.0231 413.248 82.4533 413.413C81.6563 414.963 80.8593 416.514 78.5821 416.107C78.5821 416.107 78.405 416.971 78.3164 417.391C77.7091 417.454 77.2537 416.844 76.7603 416.399C76.52 416.653 76.2922 416.933 76.0645 417.225C77.4055 417.696 80.2014 417.403 80.2014 417.403C81.9219 415.916 83.6298 414.531 85.3124 413.184C86.9823 411.824 88.6523 410.515 90.3096 409.257C90.2463 408.685 90.0565 408.126 90.5752 408.062C91.0939 408.177 91.5241 408.164 91.8783 408.088C92.3717 407.719 92.8651 407.363 93.3458 407.008C93.4723 406.83 93.5862 406.639 93.7127 406.448V406.423C93.8012 405.991 93.4723 405.775 93.0801 405.635C92.8398 405.61 92.5994 405.533 92.359 405.457C92.5741 405.495 92.8398 405.546 93.0801 405.635C93.4976 405.686 93.9025 405.661 94.282 405.521C94.4211 405.317 94.573 405.114 94.7374 404.936C94.6236 405.101 94.5097 405.279 94.4085 405.457C94.3579 405.483 94.3199 405.508 94.282 405.521C94.1175 405.762 93.9784 406.004 93.8265 406.245C93.7886 406.309 93.7506 406.372 93.7127 406.436C93.6874 406.55 93.6621 406.677 93.6241 406.792C94.7501 405.966 95.8634 405.139 96.9893 404.326C97.1917 404.072 97.3815 403.83 97.508 403.602C98.052 402.687 98.5833 401.784 99.8231 402.267C100.026 402.128 100.228 401.975 100.43 401.835C100.342 401.81 100.266 401.797 100.177 401.759C100.304 401.746 100.43 401.746 100.544 401.759C101.405 401.149 102.252 400.526 103.112 399.916C104.808 398.722 106.478 397.464 108.185 396.193C119.394 388.174 128.364 379.239 139.206 369.949C142.204 367.484 145.126 365.057 148.099 362.744C151.085 360.443 154.071 358.194 157.069 356.008C163.104 351.687 167.709 346.426 172.592 341.419C175.021 338.89 177.526 336.437 180.322 334.149C183.079 331.836 186.128 329.714 189.709 327.884C195.009 324.91 200.842 315.963 204.017 311.49C204.093 311.045 204.118 310.626 204.131 310.219C207.142 312.723 210.216 315.175 213.391 317.527L216.744 319.954L220.223 322.241L223.702 324.516C224.866 325.266 226.017 326.054 227.232 326.715L234.455 330.82C236.872 332.167 239.402 333.298 241.869 334.543C243.109 335.141 244.348 335.776 245.601 336.348L249.421 337.949L253.255 339.538C254.532 340.084 255.81 340.605 257.113 341.037C277.861 348.688 299.924 352.793 322.456 352.996C333.728 353.225 345.114 352.234 356.474 350.366C362.18 349.527 367.835 348.129 373.528 346.794C376.336 345.981 379.17 345.168 382.004 344.342C384.825 343.528 387.684 342.537 390.67 341.393C396.932 338.915 403.422 335.42 409.039 330.286C411.835 327.693 414.29 324.821 416.276 321.886C417.465 320.132 418.49 318.353 419.413 316.599C419.616 317.692 419.717 318.975 419.59 320.551C419.565 317.781 421.21 317.679 422.563 319.242C423.246 320.017 423.841 321.187 424.094 322.585C424.347 323.983 424.107 325.698 423.335 327.401C422.095 329.943 421.804 332.052 422.121 333.921C422.437 335.789 423.145 337.555 424.183 339.22C426.321 342.499 428.914 345.93 429.243 349.895C429.281 350.391 429.382 350.861 429.521 351.344C429.623 351.827 429.774 352.31 429.939 352.793C430.268 353.771 430.647 354.775 430.926 355.881C431.002 357.406 431.204 358.868 431.444 360.304C431.621 361.752 431.874 363.176 432.191 364.561C432.507 365.959 432.887 367.331 433.317 368.691C433.671 370.077 434.025 371.449 434.43 372.834C434.835 374.22 435.252 375.605 435.67 377.003C436.062 378.413 436.328 379.849 436.644 381.298C436.948 382.747 437.226 384.221 437.454 385.721C437.669 387.22 437.694 388.758 437.732 390.309C437.858 391.948 438.542 393.448 439.364 394.909C440.136 396.371 440.983 397.794 441.616 399.205C442.021 401.276 440.933 403.487 440.844 405.152C440.718 407.783 441.439 410.083 442.387 412.358C442.084 409.867 441.527 408.05 441.312 405.33C441.262 403.513 444.348 406.677 444.968 407.961C445.487 408.52 442.742 409.194 443.26 409.74C443.197 410.871 444.235 411.977 444.854 413.273C445.36 413.845 442.957 413.578 443.197 413.858C443.551 415.535 446.486 417.162 445.702 418.166C445.247 418.941 444.791 419.627 444.336 420.288C444.146 420.72 443.994 421.152 444.032 421.635C444.197 421.966 444.361 422.296 444.525 422.626C445.626 425.028 446.347 427.786 446.942 430.391C447.005 430.391 447.081 430.391 447.157 430.391C447.182 428.943 447.65 427.634 449.384 426.414C448.738 426.96 448.08 426.757 448.08 426.02C448.511 425.905 448.953 425.778 449.384 425.664C449.826 427.036 450.256 428.434 448.321 429.311C448.321 429.311 448.751 429.959 448.966 430.277C448.561 430.607 447.815 430.442 447.17 430.404C447.17 430.684 447.17 430.976 447.208 431.268C448.498 430.938 450.383 429.349 450.383 429.349C450.661 427.532 451.028 425.791 451.344 424.063C451.597 422.334 451.888 420.644 452.205 418.979C451.762 418.661 451.243 418.42 451.559 418.115C452.015 417.899 452.306 417.67 452.521 417.416C452.622 416.933 452.723 416.437 452.825 415.954C452.787 415.777 452.749 415.599 452.698 415.421C452.458 415.103 452.078 415.154 451.699 415.294C451.42 415.459 451.104 415.599 450.762 415.713C450.978 415.637 451.332 415.421 451.699 415.294C452.028 415.09 452.306 414.862 452.483 414.569C452.432 414.353 452.382 414.15 452.369 413.934C452.407 414.099 452.47 414.277 452.521 414.455C452.508 414.493 452.496 414.531 452.47 414.569C452.521 414.798 452.584 415.027 452.66 415.243C452.673 415.294 452.685 415.357 452.711 415.421C452.774 415.51 452.837 415.586 452.9 415.675C453.166 414.569 453.305 413.451 453.508 412.333C453.457 412.066 453.419 411.811 453.343 411.608C453.065 410.769 452.787 409.943 453.988 409.511C454.026 409.308 454.064 409.117 454.102 408.914C454.026 408.952 453.963 408.977 453.875 409.016C453.951 408.927 454.039 408.863 454.115 408.8C454.267 407.948 454.419 407.097 454.57 406.245C454.925 404.58 455.051 402.877 455.254 401.136C455.443 399.738 455.595 398.34 455.722 396.955C455.861 395.57 455.975 394.185 455.949 392.825C455.975 390.08 455.924 387.347 455.873 384.602L455.911 384.577ZM105.225 396.193C105.668 395.201 106.908 394.655 108.476 394.846C108.211 396.472 106.743 396.472 105.225 396.193ZM420.109 270.263C420.944 263.579 423.322 258.47 425.625 253.971C424.891 259.093 422.728 265.434 420.109 270.263ZM418.743 140.204C418.249 140.636 417.617 140.204 417.111 139.022C417.743 137.993 418.275 138.984 418.743 140.204ZM286.059 158.593L286.084 157.792L286.16 153.789C286.185 152.429 286.223 151.108 286.299 149.824C286.54 144.677 287.438 140.077 289.361 137.459C290.272 136.15 291.486 135.019 293.308 133.824C295.13 132.668 297.521 131.549 300.304 130.749C302.164 130.202 304.681 129.516 308.489 129.351C310.387 129.224 312.601 129.351 315.156 129.694C317.699 130.062 320.596 130.761 323.645 132.096C323.949 132.274 324.493 132.515 324.973 132.706C325.454 132.884 325.821 133.074 325.821 133.074C325.821 133.074 326.314 133.405 326.871 133.722L327.288 133.964C327.352 134.002 327.428 134.04 327.491 134.078C327.63 134.167 327.757 134.256 327.883 134.345C331.084 136.391 333.665 138.78 335.625 141.462C337.599 144.156 339.003 147.054 339.939 149.811C341.824 155.365 341.761 160.182 341.407 163.155C341.091 165.939 340.42 168.48 339.547 170.768C339.396 171.149 339.244 171.518 339.092 171.886C339.117 171.924 339.117 171.975 339.13 172.039C339.13 172.153 339.117 172.28 339.029 172.42C338.535 172.687 337.498 172.954 336.169 173.195C334.715 173.462 333.285 173.716 331.881 173.97C329.072 174.492 326.441 174.987 323.898 175.394C318.812 176.182 314.03 176.703 309.046 175.953C306.553 175.572 303.985 174.886 301.468 173.704C298.95 172.522 296.483 170.806 294.371 168.29C294.598 169.37 294.94 170.438 295.345 171.467C294.56 170.603 293.776 169.726 293.004 168.887C290.955 166.676 288.969 164.541 287.02 162.444C286.793 162.19 286.717 162.037 286.603 161.847C286.502 161.669 286.4 161.491 286.324 161.313C286.16 160.957 286.059 160.576 285.996 160.22C285.945 159.851 285.945 159.483 285.97 159.14C285.983 158.949 286.021 158.835 286.033 158.619L286.059 158.593ZM121.127 214.511C121.444 213.901 122.253 214.015 123.24 214.879C123.012 216.099 122.089 215.426 121.127 214.511ZM412.822 289.974C410.102 298.108 407.053 305.962 402.17 312.075C397.426 318.226 390.455 322.025 382.751 324.821C378.917 326.27 374.831 327.312 370.846 328.469C368.86 329.091 366.81 329.498 364.773 329.943C362.737 330.375 360.7 330.858 358.663 331.265L352.477 332.243L349.377 332.739L346.252 333.044C344.165 333.247 342.078 333.45 339.99 333.666C337.89 333.794 335.79 333.844 333.69 333.946C329.49 334.226 325.264 333.984 321.039 333.946C318.926 333.908 316.813 333.666 314.688 333.527C312.575 333.349 310.437 333.285 308.337 332.942C306.225 332.662 304.112 332.383 301.986 332.103C300.924 331.989 299.874 331.798 298.811 331.582L295.648 330.985L292.473 330.375L290.879 330.07L289.31 329.676C287.21 329.155 285.11 328.621 283.01 328.1C274.66 325.736 266.311 322.953 258.252 319.204C253.811 317.349 249.649 314.947 245.424 312.774C241.375 310.27 237.239 307.982 233.443 305.174C225.638 299.938 218.502 293.8 211.696 287.407C198.122 274.533 186.116 260.122 174.11 245.749C168.202 238.632 162.623 231.731 158.081 224.64C155.817 221.094 153.792 217.51 152.135 213.875C151.224 211.88 150.44 209.872 149.744 207.826C149.909 207.788 150.073 207.75 150.237 207.712C152.312 207.305 154.4 206.962 156.525 206.632C160.776 206.06 164.179 203.988 167.746 202.234C169.518 201.307 171.352 200.455 173.414 199.871C175.438 199.197 177.703 198.778 180.41 198.752C181.359 198.714 182.308 198.371 183.257 197.875C183.37 198.015 183.472 198.168 183.598 198.307C185.319 200.277 187.178 201.637 188.785 202.616C190.404 203.594 191.821 204.242 193.011 204.763C194.212 205.284 195.149 205.653 196.123 206.06C197.097 206.441 198.02 206.809 198.893 207.153C202.423 208.512 205.269 209.466 207.167 210.012C213.543 211.88 219.439 212.007 224.828 210.266C227.497 209.44 230.027 208.068 232.241 206.301C234.468 204.535 236.328 202.184 237.681 199.616C231.735 199.299 228.142 197.342 224.689 195.728C221.26 194.088 217.882 192.627 212.923 191.051C211.456 190.593 209.166 189.793 206.079 188.585C205.295 188.268 204.472 187.937 203.612 187.594C202.764 187.238 201.879 186.87 200.955 186.476C200.158 186.133 199.501 185.802 199.096 185.548C198.678 185.294 198.552 185.141 198.577 185.179C198.615 185.218 198.438 185.04 198.185 184.379C197.932 183.756 197.603 182.625 197.287 181.329C196.667 178.838 196.199 176.22 195.946 173.564C195.427 168.252 195.731 162.838 196.641 158.174C197.084 155.848 197.679 153.586 198.223 152.112C198.779 150.587 199.311 149.697 199.728 149.125C200.146 148.591 200.576 148.21 200.892 147.943C201.234 147.689 201.423 147.549 201.423 147.549C201.423 147.549 201.512 147.486 201.714 147.371C201.892 147.244 202.195 147.092 202.6 146.901C203.41 146.507 204.776 146.05 206.661 145.821C207.61 145.732 208.673 145.707 209.786 145.821C210.368 145.859 210.874 145.948 211.532 146.075C212.177 146.202 212.835 146.355 213.518 146.558C216.263 147.346 219.375 148.808 222.677 150.828C225.916 152.823 229.711 155.441 232.684 157.742C235.708 160.093 238.048 162.418 239.566 164.579C239.958 165.113 240.287 165.646 240.591 166.167C240.869 166.676 241.059 167.146 241.312 167.603C241.489 168.099 241.654 168.582 241.843 169.027C241.957 169.51 242.084 169.98 242.21 170.425C242.59 172.255 242.628 173.831 242.615 174.886C242.565 176.843 242.425 178.609 242.35 180.363C242.198 182.091 242.134 183.807 241.97 185.624C241.78 187.416 241.603 189.386 241.072 191.508C240.844 192.614 240.477 193.681 240.047 194.902C239.996 195.041 239.921 195.219 239.908 195.346L239.87 195.677C239.87 195.778 239.857 195.88 239.87 195.969C239.883 196.045 239.895 196.134 239.908 196.236C239.794 196.16 239.655 196.147 239.541 196.147C239.275 196.172 239.048 196.261 238.833 196.477C238.731 196.579 238.63 196.732 238.567 196.948C238.516 197.164 238.542 197.469 238.681 197.697C238.833 197.952 238.921 198.053 239.06 198.193C239.199 198.32 239.364 198.434 239.528 198.511C240.237 198.828 240.844 198.778 241.35 198.752C241.603 198.727 241.843 198.689 242.071 198.651C242.299 198.612 242.438 198.6 242.628 198.574C244.045 198.384 245.487 198.129 246.815 197.647C249.561 196.782 252.015 195.308 254.229 193.415C256.417 191.496 258.265 189.068 259.745 186.145C261.136 183.197 262.136 179.74 262.351 175.737C262.414 174.479 262.427 172.827 262.275 170.882C262.654 170.793 263.034 170.704 263.413 170.615C265.969 170.018 268.335 169.599 268.335 169.599C268.335 169.599 270.7 169.243 273.319 169.001C275.938 168.735 278.797 168.607 279.746 168.506C279.986 168.48 280.214 168.379 280.429 168.239C280.606 168.353 280.783 168.493 280.96 168.595C281.391 168.849 281.884 169.129 282.238 169.281C282.997 169.637 283.655 169.878 284.326 170.158C285.009 170.425 285.692 170.692 286.375 170.971C287.754 171.505 289.146 172.039 290.563 172.598C292.713 173.399 294.94 174.237 297.217 175.089C297.66 175.801 298.153 176.487 298.672 177.148C300.709 179.766 303.201 181.939 305.921 183.718C308.628 185.497 311.652 186.87 314.675 187.861C317.699 188.852 320.799 189.513 323.885 189.945C326.972 190.377 330.046 190.593 333.095 190.695C334.651 190.746 336.081 190.784 337.713 190.784C339.395 190.771 341.445 190.708 343.975 190.136C346.91 189.45 349.807 188.064 352.173 185.904C353.35 184.824 354.4 183.565 355.31 182.193C356.171 180.884 356.702 179.842 357.221 178.8C359.118 174.797 360.472 170.349 361.079 165.583C361.547 161.923 361.737 156.839 360.712 150.943C361.472 151.298 362.344 151.883 363.382 152.925C360.131 150.231 365.115 146.99 368.417 152.874C373.174 161.834 378.373 154.005 383.535 156.102C384.813 156.623 386.116 156.14 387.621 156.255C395.477 159.038 402.486 154.857 410.659 155.454C411.911 155.416 413.062 154.628 414.176 153.726C414.403 154.209 414.631 154.692 414.859 155.175C416.01 156.471 417.01 157.284 417.705 159.432C418.047 161.148 418.515 162.8 419.046 164.414C420.311 167.298 421.526 170.209 422.639 173.119C423.095 174.11 423.55 175.114 424.006 176.144C424.006 176.156 424.031 176.207 424.044 176.22C424.916 177.77 425.094 177.16 425.043 176.004C424.878 174.873 424.752 173.831 424.701 172.878C424.777 173.64 425.018 175.013 425.043 176.004C425.283 177.516 425.612 179.156 426.08 181.036C426.536 182.206 426.966 183.426 427.358 184.684C427.016 183.705 426.65 182.727 426.257 181.748C426.194 181.519 426.131 181.265 426.068 181.049C425.562 179.727 425.018 178.469 424.461 177.224C424.448 177.186 424.436 177.148 424.423 177.11C424.423 177.122 424.423 177.135 424.436 177.148C424.284 176.817 424.145 176.474 423.993 176.144C423.753 175.699 423.5 175.254 423.246 174.797C425.739 181.519 427.7 188.357 428.775 195.359C429.129 196.948 429.344 198.498 429.623 199.743C430.205 202.26 430.445 204.827 430.647 207.153C430.761 209.478 430.546 211.575 430.015 213.164C430.053 214.409 429.939 215.693 429.888 216.964C429.964 216.735 430.04 216.468 430.129 216.239C430.04 216.798 429.952 217.281 429.863 217.663C429.812 220.331 429.471 223 429.268 225.669C428.927 228.338 428.636 231.007 428.18 233.675C426.498 244.084 423.93 254.467 420.817 264.964C418.3 273.39 415.58 281.752 412.885 289.987L412.822 289.974ZM239.895 196.592L239.87 196.668L239.781 196.77C239.781 196.77 239.781 196.706 239.781 196.681C239.781 196.604 239.807 196.49 239.908 196.515C239.908 196.554 239.908 196.592 239.908 196.604L239.895 196.592ZM453.305 402.966C452.863 402.153 453.293 401.124 454.469 400.272C455.507 401.327 454.52 402.217 453.305 402.966Z" fill="black"/>
<path d="M275.052 259.563C276.482 263.045 280.416 263.871 287.412 264.646C292.258 259.512 294.725 256.322 293.574 252.738C292.334 248.849 285.173 229.736 285.173 229.736C285.173 229.736 278.329 210.508 276.773 206.733C275.331 203.251 271.396 202.425 264.4 201.662C259.555 206.797 257.088 209.987 258.239 213.57C259.479 217.459 266.64 236.573 266.64 236.573C266.64 236.573 273.496 255.801 275.04 259.575L275.052 259.563Z" fill="black"/>
<path d="M314.89 275.131C313.069 275.55 307.603 276.897 302.492 277.672C299.95 278.092 297.495 278.371 295.686 278.562C293.877 278.727 292.701 278.842 292.701 278.842C292.701 278.842 291.524 278.893 289.715 278.969C287.893 279.02 285.426 279.083 282.858 279.007C277.696 278.931 272.105 278.321 270.232 278.155C268.512 278.016 267.057 278.664 265.476 280.125C263.907 281.536 262.237 283.696 260.074 286.518C260.984 289.911 261.908 292.567 263.085 294.473C264.274 296.329 265.716 297.485 267.715 297.816C269.878 298.197 276.457 298.896 282.491 298.947C285.515 299.01 288.399 298.909 290.525 298.82C292.65 298.692 294.016 298.616 294.016 298.616C294.016 298.616 295.383 298.515 297.508 298.349C299.621 298.159 302.492 297.866 305.478 297.396C311.462 296.532 317.876 294.943 319.976 294.283C321.912 293.685 323.19 292.338 324.126 290.343C325.037 288.297 325.593 285.539 326.049 282.057C323.518 279.553 321.583 277.634 319.837 276.452C318.079 275.22 316.548 274.762 314.865 275.143L314.89 275.131Z" fill="black"/>
<path d="M442.033 138.209L441.072 138.056C441.224 138.234 441.375 138.514 441.527 138.946C441.73 139.238 441.856 138.692 442.033 138.209Z" fill="black"/>
<path d="M439.997 137.865C439.946 137.929 439.895 138.006 439.845 138.082C439.959 138.006 440.061 137.955 440.175 137.904C440.111 137.904 440.061 137.878 439.997 137.878V137.865Z" fill="black"/>
<path d="M439.326 138.399C439.086 138.209 438.807 138.196 438.466 138.475C438.757 138.615 439.048 138.552 439.326 138.399Z" fill="black"/>
<path d="M439.845 138.094C439.668 138.196 439.503 138.31 439.326 138.399C439.503 138.552 439.655 138.793 439.794 139.111C439.706 138.742 439.668 138.361 439.845 138.094Z" fill="black"/>
<path d="M439.794 139.111C439.883 139.467 440.034 139.797 440.085 140.001C440.009 139.67 439.908 139.378 439.794 139.111Z" fill="black"/>
<path d="M435.341 146.164C434.544 146.838 432.494 150.066 433.658 149.951C435.417 149.634 436.581 148.985 438.175 148.579C439.49 147.638 440.756 146.507 442.109 145.668C442.489 145.567 442.818 145.77 443.159 145.935C442.716 145.541 442.261 145.147 441.768 144.779C441.11 144.08 440.186 147.181 439.124 147.715C438.946 147.981 439.06 145.541 438.706 146.075C437.909 146.736 437.213 147.816 436.492 147.804C436.151 148.35 435.695 145.63 435.341 146.164Z" fill="black"/>
<path d="M446.702 140.153C447.562 141.665 448.409 141.932 449.308 141.716C449.282 141.055 449.32 140.293 449.093 139.937C448.915 140.204 448.549 140.738 448.549 140.738C447.878 138.958 447.056 139.607 446.246 140.255C446.347 140.661 446.448 141.081 446.55 141.487C447.005 141.36 447.081 140.687 446.702 140.14V140.153Z" fill="black"/>
<path d="M449.852 141.602V141.538C449.662 141.614 449.485 141.678 449.308 141.716C449.308 141.78 449.308 141.856 449.308 141.932C449.485 141.818 449.662 141.703 449.839 141.602H449.852Z" fill="black"/>
<path d="M99.3045 227.512L100.279 227.131C100.038 227.054 99.7599 226.902 99.4057 226.609C99.0767 226.47 99.2159 227.003 99.2918 227.512H99.3045Z" fill="black"/>
<path d="M101.367 226.75C101.38 226.661 101.393 226.572 101.405 226.482C101.342 226.597 101.266 226.712 101.189 226.814C101.253 226.789 101.304 226.776 101.367 226.75Z" fill="black"/>
<path d="M102.518 225.402C102.176 225.428 101.936 225.644 101.746 225.923C102.062 225.961 102.328 225.834 102.518 225.402Z" fill="black"/>
<path d="M101.746 225.923C101.506 225.885 101.24 225.758 100.962 225.555C101.227 225.822 101.442 226.139 101.417 226.47C101.518 226.292 101.632 226.101 101.746 225.936V225.923Z" fill="black"/>
<path d="M100.962 225.555C100.709 225.3 100.405 225.084 100.253 224.932C100.494 225.173 100.721 225.389 100.962 225.555Z" fill="black"/>
<path d="M97.4448 217.675C97.4954 217.345 98.5581 219.531 98.6466 218.87C99.1147 217.841 99.3045 216.519 100.038 216.163C100.139 215.502 101.86 217.675 101.961 217.014C102.442 216.011 103.062 212.058 101.923 212.783C100.266 214.003 99.3804 215.146 97.9635 216.379C97.1032 217.942 96.3947 219.632 95.4839 221.107C95.1676 221.399 94.7374 221.424 94.3073 221.462C94.9399 221.551 95.5851 221.64 96.2682 221.691C97.255 221.933 96.6224 218.73 97.4448 217.675Z" fill="black"/>
<path d="M91.891 229.99C91.9163 229.66 91.9542 229.011 91.9542 229.011C93.5482 230.117 93.9278 229.113 94.3326 228.084L93.4091 227.219C93.0549 227.588 93.3458 228.211 93.9784 228.452C92.3844 227.664 91.4355 227.944 90.7144 228.643C91.1066 229.177 91.4861 229.85 91.891 230.003V229.99Z" fill="black"/>
<path d="M90.7144 228.63C90.7144 228.63 90.6385 228.516 90.5879 228.465C90.4867 228.668 90.3728 228.859 90.2716 229.049L90.3222 229.088C90.4487 228.922 90.5752 228.77 90.7144 228.63Z" fill="black"/>
</g>
<defs>
<clipPath id="clip0_638_10845">
<rect width="400" height="393" fill="white" transform="translate(56 60)"/>
</clipPath>
</defs>
</svg>
